<?xml version="1.0" encoding="iso-8859-1"?>
<!-- Generator: Adobe Illustrator 19.0.0, SVG Export Plug-In . SVG Version: 6.00 Build 0)  -->
<svg version="1.1" id="Layer_1" xmlns="http://www.w3.org/2000/svg" xmlns:xlink="http://www.w3.org/1999/xlink" x="0px" y="0px"
	 viewBox="0 0 512.001 512.001" style="enable-background:new 0 0 512.001 512.001;" xml:space="preserve">
<path style="fill:#FFFFFF;" d="M66.496,135.141h379.008c32.307,0,58.496,26.19,58.496,58.496v236.08
	c0,32.307-26.19,58.496-58.496,58.496H66.496C34.189,488.212,8,462.022,8,429.716v-236.08C8,161.33,34.19,135.141,66.496,135.141z"
	/>
<path style="fill:#E21B1B;" d="M445.512,143.141c27.862,0.031,50.444,22.603,50.488,50.464v236.112
	c-0.031,27.871-22.617,50.457-50.488,50.488H66.488C38.617,480.173,16.031,457.587,16,429.716V193.605
	c0.031-27.871,22.617-50.457,50.488-50.488h379.024 M445.512,127.116H66.488C29.813,127.226,0.11,156.93,0,193.605v236.112
	c0.11,36.674,29.813,66.378,66.488,66.488h379.024c36.674-0.11,66.378-29.813,66.488-66.488V193.605
	C511.891,156.93,482.187,127.226,445.512,127.116z"/>
<path d="M402.153,202.204h-32v-117c-0.022-20.627-16.725-37.351-37.352-37.4H179.249c-20.646,0.026-37.375,16.762-37.392,37.408
	v116.992h-32V85.204c0.039-38.31,31.082-69.359,69.392-69.408h153.552c38.31,0.049,69.353,31.098,69.392,69.408L402.153,202.204z"/>
<g>
	<path style="fill:#E21B1B;" d="M104,246.061h62.12v16.12h-42.464v29.712h39.584v16.112h-39.584v45.664H104
		C104,353.669,104,246.061,104,246.061z"/>
	<path style="fill:#E21B1B;" d="M181.208,247.5c9.828-1.537,19.764-2.285,29.712-2.24c11.74-1.146,23.507,1.906,33.208,8.616
		c6.188,5.434,9.59,13.372,9.256,21.6c-0.105,12.203-7.916,23.005-19.472,26.928v0.496c8.134,3.998,13.756,11.768,15.008,20.744
		c2.089,10.198,4.921,20.231,8.472,30.016h-20.296c-3.131-8.239-5.54-16.735-7.2-25.392c-3.04-14.04-8.144-18.528-19.328-18.832
		h-9.864v44.232h-19.496L181.208,247.5L181.208,247.5z M200.704,295.077h11.656c13.24,0,21.552-7.032,21.552-17.728
		c0-11.824-8.304-17.248-21.072-17.248c-4.066-0.114-8.132,0.211-12.128,0.968L200.704,295.077z"/>
	<path style="fill:#E21B1B;" d="M332.192,305.933h-40.544v31.624h45.336v16.12H272V246.061h62.592v16.12h-42.944v27.8h40.544
		L332.192,305.933z"/>
	<path style="fill:#E21B1B;" d="M414.336,305.933h-40.544v31.624h45.336v16.12h-64.992V246.061h62.584v16.12h-42.928v27.8h40.544
		L414.336,305.933L414.336,305.933z"/>
	<path style="fill:#E21B1B;" d="M105.544,422.596c3.862,2.151,8.204,3.296,12.624,3.328c6.104,0,9.52-2.856,9.52-7.112
		c0-3.944-2.632-6.272-9.296-8.68c-8.592-3.088-14.088-7.672-14.088-15.2c0-8.512,7.112-15.008,18.4-15.008
		c4.33-0.122,8.628,0.78,12.544,2.632l-2.32,7.648c-3.213-1.661-6.784-2.508-10.4-2.464c-6.024,0-8.656,3.248-8.656,6.272
		c0,4,3.024,5.88,9.992,8.592c9.048,3.416,13.464,8,13.464,15.48c0,8.368-6.352,15.648-19.824,15.648
		c-4.89,0.035-9.721-1.078-14.104-3.248L105.544,422.596z"/>
	<path style="fill:#E21B1B;" d="M155.464,380.805v20.912h22.064v-20.912h9.52v52.184h-9.52v-22.992h-22.064v22.984h-9.536v-52.176
		L155.464,380.805L155.464,380.805z"/>
	<path style="fill:#E21B1B;" d="M207.448,380.805v52.184h-9.544v-52.184H207.448z"/>
	<path style="fill:#E21B1B;" d="M218.344,381.5c4.812-0.791,9.684-1.155,14.56-1.088c5.479-0.411,10.931,1.094,15.424,4.256
		c3.334,2.893,5.203,7.124,5.096,11.536c0.223,4.398-1.401,8.691-4.48,11.84c-4.551,3.953-10.471,5.964-16.488,5.6
		c-1.555,0.028-3.11-0.077-4.648-0.312v19.656h-9.464L218.344,381.5L218.344,381.5z M227.8,405.804
		c1.527,0.319,3.088,0.451,4.648,0.392c7.112,0,11.456-3.472,11.456-9.6c0-5.8-4-8.904-10.608-8.904
		c-1.841-0.045-3.681,0.114-5.488,0.472L227.8,405.804z"/>
	<path style="fill:#E21B1B;" d="M261.6,381.5c4.812-0.791,9.684-1.155,14.56-1.088c5.479-0.411,10.931,1.094,15.424,4.256
		c3.334,2.893,5.203,7.124,5.096,11.536c0.223,4.398-1.401,8.691-4.48,11.84c-4.551,3.953-10.471,5.964-16.488,5.6
		c-1.555,0.028-3.111-0.077-4.648-0.312v19.656h-9.464L261.6,381.5L261.6,381.5z M271.056,405.804
		c1.527,0.319,3.088,0.451,4.648,0.392c7.112,0,11.456-3.472,11.456-9.6c0-5.8-4-8.904-10.608-8.904
		c-1.841-0.045-3.681,0.114-5.488,0.472L271.056,405.804z"/>
	<path style="fill:#E21B1B;" d="M314.4,380.805v52.184h-9.6v-52.184H314.4z"/>
	<path style="fill:#E21B1B;" d="M325.265,432.981v-52.176h10.856l13.48,22.4c3.356,5.626,6.331,11.471,8.904,17.496h0.144
		c-0.616-6.968-0.84-13.696-0.84-21.672v-18.224h8.8v52.184H356.8l-13.6-22.928c-3.473-5.835-6.612-11.863-9.4-18.056l-0.248,0.08
		c0.392,6.72,0.472,13.6,0.472,22.208v18.672L325.265,432.981z"/>
	<path style="fill:#E21B1B;" d="M419.376,430.581c-5.396,1.913-11.075,2.907-16.8,2.944c-7.47,0.498-14.83-2.011-20.44-6.968
		c-4.982-5.115-7.618-12.068-7.28-19.2c-0.394-14.637,11.153-26.822,25.789-27.215c1.082-0.029,2.165,0.008,3.242,0.111
		c4.738-0.128,9.453,0.71,13.856,2.464l-2.096,7.672c-3.739-1.592-7.778-2.356-11.84-2.24c-9.61-0.877-18.11,6.202-18.988,15.812
		c-0.089,0.975-0.096,1.956-0.021,2.932c-0.92,9.486,6.025,17.921,15.51,18.841c0.865,0.084,1.735,0.103,2.602,0.055
		c2.449,0.12,4.897-0.249,7.2-1.088v-13.016h-9.16v-7.504h18.4L419.376,430.581z"/>
</g>
<g>
</g>
<g>
</g>
<g>
</g>
<g>
</g>
<g>
</g>
<g>
</g>
<g>
</g>
<g>
</g>
<g>
</g>
<g>
</g>
<g>
</g>
<g>
</g>
<g>
</g>
<g>
</g>
<g>
</g>
</svg>
