<svg xmlns="http://www.w3.org/2000/svg" xmlns:xlink="http://www.w3.org/1999/xlink" width="200" zoomAndPan="magnify" viewBox="0 0 150 149.999998" height="200" preserveAspectRatio="xMidYMid meet" version="1.0"><defs><g/><clipPath id="id1"><path d="M 35.773438 28 L 114.316406 28 L 114.316406 61 L 35.773438 61 Z M 35.773438 28 " clip-rule="nonzero"/></clipPath></defs><path fill="#f5b900" d="M 87.378906 50.554688 C 87.378906 51.253906 87.359375 51.953125 87.320312 52.652344 C 87.28125 53.347656 87.222656 54.039062 87.140625 54.726562 C 87.0625 55.414062 86.964844 56.09375 86.847656 56.765625 C 86.730469 57.4375 86.59375 58.09375 86.4375 58.742188 C 86.285156 59.390625 86.113281 60.023438 85.921875 60.640625 C 85.730469 61.257812 85.523438 61.859375 85.296875 62.441406 C 85.074219 63.027344 84.832031 63.585938 84.574219 64.128906 C 84.320312 64.671875 84.046875 65.191406 83.761719 65.6875 C 83.476562 66.179688 83.175781 66.652344 82.863281 67.097656 C 82.550781 67.539062 82.226562 67.957031 81.890625 68.347656 C 81.554688 68.738281 81.207031 69.097656 80.851562 69.425781 C 80.492188 69.757812 80.128906 70.054688 79.753906 70.324219 C 79.382812 70.59375 79 70.828125 78.613281 71.03125 C 78.226562 71.234375 77.835938 71.40625 77.4375 71.542969 C 77.042969 71.679688 76.640625 71.78125 76.238281 71.851562 C 75.835938 71.917969 75.433594 71.953125 75.027344 71.953125 C 74.625 71.953125 74.21875 71.917969 73.816406 71.851562 C 73.414062 71.78125 73.015625 71.679688 72.617188 71.542969 C 72.222656 71.40625 71.828125 71.234375 71.441406 71.03125 C 71.054688 70.828125 70.675781 70.59375 70.300781 70.324219 C 69.929688 70.054688 69.5625 69.757812 69.207031 69.425781 C 68.847656 69.097656 68.503906 68.738281 68.167969 68.347656 C 67.832031 67.957031 67.503906 67.539062 67.191406 67.097656 C 66.878906 66.652344 66.582031 66.179688 66.292969 65.6875 C 66.007812 65.191406 65.738281 64.671875 65.480469 64.128906 C 65.222656 63.585938 64.984375 63.027344 64.757812 62.441406 C 64.535156 61.859375 64.328125 61.257812 64.136719 60.640625 C 63.945312 60.023438 63.773438 59.390625 63.617188 58.742188 C 63.460938 58.09375 63.328125 57.4375 63.210938 56.765625 C 63.089844 56.09375 62.992188 55.414062 62.914062 54.726562 C 62.835938 54.039062 62.777344 53.347656 62.738281 52.652344 C 62.695312 51.953125 62.675781 51.253906 62.675781 50.554688 C 62.675781 49.851562 62.695312 49.152344 62.738281 48.457031 C 62.777344 47.757812 62.835938 47.066406 62.914062 46.378906 C 62.992188 45.691406 63.089844 45.011719 63.210938 44.339844 C 63.328125 43.671875 63.460938 43.011719 63.617188 42.363281 C 63.773438 41.714844 63.945312 41.082031 64.136719 40.464844 C 64.328125 39.847656 64.535156 39.246094 64.757812 38.664062 C 64.984375 38.082031 65.222656 37.519531 65.480469 36.976562 C 65.738281 36.433594 66.007812 35.917969 66.292969 35.421875 C 66.582031 34.925781 66.878906 34.453125 67.191406 34.011719 C 67.503906 33.566406 67.832031 33.148438 68.167969 32.757812 C 68.503906 32.371094 68.847656 32.011719 69.207031 31.679688 C 69.5625 31.347656 69.929688 31.050781 70.300781 30.78125 C 70.675781 30.511719 71.054688 30.277344 71.441406 30.074219 C 71.828125 29.871094 72.222656 29.699219 72.617188 29.5625 C 73.015625 29.425781 73.414062 29.324219 73.816406 29.253906 C 74.21875 29.1875 74.625 29.152344 75.027344 29.152344 C 75.433594 29.152344 75.835938 29.1875 76.238281 29.253906 C 76.640625 29.324219 77.042969 29.425781 77.4375 29.5625 C 77.835938 29.699219 78.226562 29.871094 78.613281 30.074219 C 79 30.277344 79.382812 30.511719 79.753906 30.78125 C 80.128906 31.050781 80.492188 31.347656 80.851562 31.679688 C 81.207031 32.011719 81.554688 32.371094 81.890625 32.757812 C 82.226562 33.148438 82.550781 33.566406 82.863281 34.011719 C 83.175781 34.453125 83.476562 34.925781 83.761719 35.421875 C 84.046875 35.917969 84.320312 36.433594 84.574219 36.976562 C 84.832031 37.519531 85.074219 38.082031 85.296875 38.664062 C 85.523438 39.246094 85.730469 39.847656 85.921875 40.464844 C 86.113281 41.082031 86.285156 41.714844 86.4375 42.363281 C 86.59375 43.011719 86.730469 43.671875 86.847656 44.339844 C 86.964844 45.011719 87.0625 45.691406 87.140625 46.378906 C 87.222656 47.066406 87.28125 47.757812 87.320312 48.457031 C 87.359375 49.152344 87.378906 49.851562 87.378906 50.554688 Z M 87.378906 50.554688 " fill-opacity="1" fill-rule="nonzero"/><path fill="#232323" d="M 85.953125 50.554688 C 85.953125 44.910156 84.648438 39.820312 82.539062 36.160156 C 80.550781 32.75 77.914062 30.640625 75.058594 30.640625 C 72.203125 30.640625 69.566406 32.75 67.582031 36.160156 C 65.46875 39.820312 64.167969 44.910156 64.167969 50.554688 C 64.167969 56.199219 65.46875 61.285156 67.582031 64.945312 C 69.566406 68.355469 72.203125 70.464844 75.058594 70.464844 C 77.914062 70.464844 80.550781 68.355469 82.539062 64.945312 C 84.648438 61.285156 85.953125 56.199219 85.953125 50.554688 Z M 85.050781 34.703125 C 87.410156 38.796875 88.867188 44.382812 88.867188 50.554688 C 88.867188 56.726562 87.410156 62.308594 85.050781 66.402344 C 82.570312 70.714844 79.03125 73.410156 75.058594 73.410156 C 71.085938 73.410156 67.550781 70.746094 65.066406 66.402344 C 62.707031 62.308594 61.25 56.726562 61.25 50.554688 C 61.25 44.382812 62.707031 38.796875 65.066406 34.703125 C 67.550781 30.394531 71.085938 27.695312 75.058594 27.695312 C 79.03125 27.695312 82.570312 30.363281 85.050781 34.703125 Z M 85.050781 34.703125 " fill-opacity="1" fill-rule="nonzero"/><path fill="#232323" d="M 86.945312 13.054688 C 87.71875 12.808594 88.527344 13.242188 88.777344 13.984375 C 89.023438 14.761719 88.589844 15.566406 87.84375 15.816406 C 87.8125 15.816406 78.8125 18.605469 76.488281 29.429688 C 76.332031 30.207031 75.554688 30.734375 74.75 30.546875 C 73.972656 30.394531 73.445312 29.617188 73.632812 28.8125 C 76.332031 16.3125 86.945312 13.023438 86.976562 13.023438 Z M 86.945312 13.054688 " fill-opacity="1" fill-rule="nonzero"/><path fill="#232323" d="M 62.242188 15.847656 C 61.46875 15.597656 61.0625 14.792969 61.3125 14.015625 C 61.558594 13.242188 62.367188 12.839844 63.144531 13.085938 C 63.171875 13.085938 73.785156 16.375 76.488281 28.875 C 76.640625 29.648438 76.144531 30.425781 75.371094 30.609375 C 74.59375 30.765625 73.816406 30.269531 73.632812 29.492188 C 71.304688 18.667969 62.273438 15.878906 62.273438 15.878906 Z M 62.242188 15.847656 " fill-opacity="1" fill-rule="nonzero"/><path fill="#b88b00" d="M 64.136719 50.554688 C 64.136719 58.554688 68.292969 66 75.027344 70.246094 L 75.027344 30.890625 C 68.292969 35.136719 64.136719 42.613281 64.136719 50.585938 Z M 64.136719 50.554688 " fill-opacity="1" fill-rule="nonzero"/><path fill="#b88b00" d="M 75.027344 73.628906 L 74.316406 73.195312 Z M 75.027344 73.628906 " fill-opacity="1" fill-rule="nonzero"/><path fill="#232323" d="M 84.058594 38.148438 L 66.027344 38.148438 C 64.539062 40.722656 63.515625 43.542969 63.019531 46.582031 L 87.070312 46.582031 C 86.574219 43.542969 85.546875 40.691406 84.058594 38.148438 Z M 66.371094 63.488281 L 83.75 63.488281 C 85.332031 60.941406 86.449219 58.089844 87.007812 55.050781 L 63.113281 55.050781 C 63.671875 58.089844 64.789062 60.941406 66.339844 63.488281 Z M 66.371094 63.488281 " fill-opacity="1" fill-rule="nonzero"/><g clip-path="url(#id1)"><path fill="#232323" d="M 93.742188 60.042969 C 86.449219 59.390625 80.085938 41.371094 80.085938 41.371094 L 98.582031 58.277344 C 97.621094 59.515625 96.007812 60.230469 93.773438 60.042969 Z M 56.316406 60.042969 C 63.609375 59.390625 69.96875 41.371094 69.96875 41.371094 L 51.472656 58.277344 C 52.4375 59.515625 54.050781 60.230469 56.285156 60.042969 Z M 36.980469 32.71875 C 36.332031 33.679688 35.894531 35.015625 35.804688 36.472656 L 70 41.339844 C 51.566406 24.191406 39.714844 28.65625 36.980469 32.71875 Z M 48.867188 47.109375 C 51.566406 47.203125 54.019531 47.046875 56.222656 46.707031 C 55.972656 46.832031 55.726562 46.984375 55.507812 47.109375 C 50.417969 50.027344 49.300781 55.453125 51.535156 58.277344 L 70.03125 41.371094 L 70 41.371094 L 70.03125 41.339844 L 35.835938 36.472656 C 35.523438 41 38.597656 46.769531 48.898438 47.109375 Z M 113.105469 32.71875 C 113.757812 33.679688 114.191406 35.015625 114.285156 36.472656 L 80.085938 41.339844 C 98.519531 24.191406 110.375 28.65625 113.105469 32.71875 Z M 101.21875 47.109375 C 98.519531 47.203125 96.066406 47.046875 93.863281 46.707031 C 94.113281 46.832031 94.363281 46.984375 94.578125 47.109375 C 99.667969 50.027344 100.785156 55.453125 98.550781 58.277344 L 80.054688 41.371094 L 80.085938 41.371094 L 80.054688 41.339844 L 114.253906 36.472656 C 114.5625 41 111.492188 46.769531 101.1875 47.109375 Z M 101.21875 47.109375 " fill-opacity="1" fill-rule="nonzero"/></g><path fill="#232323" d="M 76.488281 71.613281 L 75.027344 82.902344 L 73.570312 71.613281 Z M 76.488281 71.613281 " fill-opacity="1" fill-rule="nonzero"/><g fill="#000000" fill-opacity="1"><g transform="translate(50.001936, 108.602376)"><g><path d="M 1.984375 -18.59375 L 10.0625 -18.59375 C 11.945312 -18.59375 13.453125 -18.132812 14.578125 -17.21875 C 15.703125 -16.300781 16.265625 -15.132812 16.265625 -13.71875 C 16.265625 -11.613281 15.035156 -10.191406 12.578125 -9.453125 C 13.828125 -9.273438 14.820312 -8.753906 15.5625 -7.890625 C 16.3125 -7.023438 16.6875 -6.007812 16.6875 -4.84375 C 16.6875 -3.363281 16.140625 -2.1875 15.046875 -1.3125 C 13.960938 -0.4375 12.453125 0 10.515625 0 L 1.984375 0 Z M 6.515625 -15.15625 L 6.515625 -11.125 L 9.484375 -11.125 C 10.140625 -11.125 10.664062 -11.289062 11.0625 -11.625 C 11.457031 -11.957031 11.65625 -12.453125 11.65625 -13.109375 C 11.65625 -13.773438 11.457031 -14.28125 11.0625 -14.625 C 10.664062 -14.976562 10.140625 -15.15625 9.484375 -15.15625 Z M 6.515625 -3.4375 L 9.9375 -3.4375 C 10.550781 -3.4375 11.0625 -3.625 11.46875 -4 C 11.875 -4.375 12.078125 -4.882812 12.078125 -5.53125 C 12.078125 -6.1875 11.878906 -6.707031 11.484375 -7.09375 C 11.097656 -7.488281 10.597656 -7.6875 9.984375 -7.6875 L 6.515625 -7.6875 Z M 6.515625 -3.4375 "/></g></g></g><g fill="#000000" fill-opacity="1"><g transform="translate(67.187102, 108.602376)"><g><path d="M 8.265625 0.1875 C 6.109375 0.1875 4.34375 -0.503906 2.96875 -1.890625 C 1.59375 -3.273438 0.90625 -5.113281 0.90625 -7.40625 C 0.90625 -9.707031 1.585938 -11.535156 2.953125 -12.890625 C 4.316406 -14.253906 6.082031 -14.9375 8.25 -14.9375 C 10.425781 -14.9375 12.226562 -14.265625 13.65625 -12.921875 C 15.09375 -11.578125 15.8125 -9.71875 15.8125 -7.34375 C 15.8125 -6.820312 15.773438 -6.34375 15.703125 -5.90625 L 5.53125 -5.90625 C 5.625 -5.25 5.914062 -4.710938 6.40625 -4.296875 C 6.90625 -3.890625 7.441406 -3.6875 8.015625 -3.6875 C 8.585938 -3.6875 9.015625 -3.742188 9.296875 -3.859375 C 9.578125 -3.972656 9.78125 -4.085938 9.90625 -4.203125 C 10.039062 -4.316406 10.21875 -4.503906 10.4375 -4.765625 L 15.328125 -4.765625 C 14.910156 -3.285156 14.066406 -2.085938 12.796875 -1.171875 C 11.523438 -0.265625 10.015625 0.1875 8.265625 0.1875 Z M 11.09375 -8.734375 C 11.019531 -9.421875 10.71875 -9.984375 10.1875 -10.421875 C 9.664062 -10.859375 9.039062 -11.078125 8.3125 -11.078125 C 7.59375 -11.078125 6.984375 -10.859375 6.484375 -10.421875 C 5.992188 -9.984375 5.6875 -9.421875 5.5625 -8.734375 Z M 11.09375 -8.734375 "/></g></g></g><g fill="#000000" fill-opacity="1"><g transform="translate(83.260117, 108.602376)"><g><path d="M 8.265625 0.1875 C 6.109375 0.1875 4.34375 -0.503906 2.96875 -1.890625 C 1.59375 -3.273438 0.90625 -5.113281 0.90625 -7.40625 C 0.90625 -9.707031 1.585938 -11.535156 2.953125 -12.890625 C 4.316406 -14.253906 6.082031 -14.9375 8.25 -14.9375 C 10.425781 -14.9375 12.226562 -14.265625 13.65625 -12.921875 C 15.09375 -11.578125 15.8125 -9.71875 15.8125 -7.34375 C 15.8125 -6.820312 15.773438 -6.34375 15.703125 -5.90625 L 5.53125 -5.90625 C 5.625 -5.25 5.914062 -4.710938 6.40625 -4.296875 C 6.90625 -3.890625 7.441406 -3.6875 8.015625 -3.6875 C 8.585938 -3.6875 9.015625 -3.742188 9.296875 -3.859375 C 9.578125 -3.972656 9.78125 -4.085938 9.90625 -4.203125 C 10.039062 -4.316406 10.21875 -4.503906 10.4375 -4.765625 L 15.328125 -4.765625 C 14.910156 -3.285156 14.066406 -2.085938 12.796875 -1.171875 C 11.523438 -0.265625 10.015625 0.1875 8.265625 0.1875 Z M 11.09375 -8.734375 C 11.019531 -9.421875 10.71875 -9.984375 10.1875 -10.421875 C 9.664062 -10.859375 9.039062 -11.078125 8.3125 -11.078125 C 7.59375 -11.078125 6.984375 -10.859375 6.484375 -10.421875 C 5.992188 -9.984375 5.6875 -9.421875 5.5625 -8.734375 Z M 11.09375 -8.734375 "/></g></g></g><g fill="#000000" fill-opacity="1"><g transform="translate(21.351938, 136.202375)"><g><path d="M 1.984375 0 L 1.984375 -18.59375 L 14.09375 -18.59375 L 14.09375 -15.15625 L 6.515625 -15.15625 L 6.515625 -11.15625 L 12.1875 -11.15625 L 12.1875 -7.703125 L 6.515625 -7.703125 L 6.515625 0 Z M 1.984375 0 "/></g></g></g><g fill="#000000" fill-opacity="1"><g transform="translate(35.91561, 136.202375)"><g><path d="M 10.984375 -4.6875 C 11.640625 -5.320312 11.96875 -6.222656 11.96875 -7.390625 C 11.96875 -8.554688 11.640625 -9.453125 10.984375 -10.078125 C 10.335938 -10.703125 9.585938 -11.015625 8.734375 -11.015625 C 7.890625 -11.015625 7.140625 -10.695312 6.484375 -10.0625 C 5.835938 -9.425781 5.515625 -8.523438 5.515625 -7.359375 C 5.515625 -6.191406 5.835938 -5.296875 6.484375 -4.671875 C 7.140625 -4.046875 7.890625 -3.734375 8.734375 -3.734375 C 9.585938 -3.734375 10.335938 -4.050781 10.984375 -4.6875 Z M 2.859375 -1.921875 C 1.554688 -3.335938 0.90625 -5.148438 0.90625 -7.359375 C 0.90625 -9.566406 1.554688 -11.378906 2.859375 -12.796875 C 4.160156 -14.222656 5.753906 -14.9375 7.640625 -14.9375 C 9.523438 -14.9375 10.96875 -14.238281 11.96875 -12.84375 L 11.96875 -14.78125 L 16.5 -14.78125 L 16.5 0 L 11.96875 0 L 11.96875 -2.140625 C 10.875 -0.585938 9.40625 0.1875 7.5625 0.1875 C 5.726562 0.1875 4.160156 -0.515625 2.859375 -1.921875 Z M 2.859375 -1.921875 "/></g></g></g><g fill="#000000" fill-opacity="1"><g transform="translate(53.736289, 136.202375)"><g><path d="M 0.984375 -10.328125 C 0.984375 -11.628906 1.535156 -12.722656 2.640625 -13.609375 C 3.753906 -14.492188 5.257812 -14.9375 7.15625 -14.9375 C 9.0625 -14.9375 10.59375 -14.503906 11.75 -13.640625 C 12.914062 -12.773438 13.535156 -11.59375 13.609375 -10.09375 L 8.984375 -10.09375 C 8.929688 -10.601562 8.753906 -10.953125 8.453125 -11.140625 C 8.148438 -11.328125 7.695312 -11.421875 7.09375 -11.421875 C 5.914062 -11.421875 5.328125 -11.054688 5.328125 -10.328125 C 5.328125 -9.671875 6.050781 -9.222656 7.5 -8.984375 C 8.957031 -8.734375 10.289062 -8.351562 11.5 -7.84375 C 12.113281 -7.59375 12.628906 -7.179688 13.046875 -6.609375 C 13.460938 -6.035156 13.671875 -5.332031 13.671875 -4.5 C 13.671875 -3.125 13.078125 -2 11.890625 -1.125 C 10.703125 -0.25 9.207031 0.1875 7.40625 0.1875 C 5.613281 0.1875 4.113281 -0.222656 2.90625 -1.046875 C 1.707031 -1.867188 1.054688 -3.082031 0.953125 -4.6875 L 5.59375 -4.6875 C 5.71875 -3.789062 6.351562 -3.34375 7.5 -3.34375 C 8.03125 -3.34375 8.46875 -3.460938 8.8125 -3.703125 C 9.15625 -3.953125 9.328125 -4.269531 9.328125 -4.65625 C 9.328125 -5.050781 9.035156 -5.363281 8.453125 -5.59375 C 7.878906 -5.820312 7.1875 -6.015625 6.375 -6.171875 C 5.570312 -6.328125 4.757812 -6.523438 3.9375 -6.765625 C 3.113281 -7.003906 2.414062 -7.421875 1.84375 -8.015625 C 1.269531 -8.609375 0.984375 -9.378906 0.984375 -10.328125 Z M 0.984375 -10.328125 "/></g></g></g><g fill="#000000" fill-opacity="1"><g transform="translate(67.77037, 136.202375)"><g><path d="M 6.515625 -19.59375 L 6.515625 -12.609375 C 7.453125 -14.160156 8.941406 -14.9375 10.984375 -14.9375 C 12.679688 -14.9375 14.054688 -14.367188 15.109375 -13.234375 C 16.160156 -12.109375 16.6875 -10.578125 16.6875 -8.640625 L 16.6875 0 L 12.1875 0 L 12.1875 -8.03125 C 12.1875 -8.976562 11.929688 -9.710938 11.421875 -10.234375 C 10.921875 -10.753906 10.226562 -11.015625 9.34375 -11.015625 C 8.46875 -11.015625 7.773438 -10.753906 7.265625 -10.234375 C 6.765625 -9.710938 6.515625 -8.976562 6.515625 -8.03125 L 6.515625 0 L 1.984375 0 L 1.984375 -19.59375 Z M 6.515625 -19.59375 "/></g></g></g><g fill="#000000" fill-opacity="1"><g transform="translate(85.644008, 136.202375)"><g><path d="M 6.109375 -16.4375 C 5.597656 -15.925781 4.972656 -15.671875 4.234375 -15.671875 C 3.492188 -15.671875 2.867188 -15.925781 2.359375 -16.4375 C 1.847656 -16.957031 1.59375 -17.59375 1.59375 -18.34375 C 1.59375 -19.09375 1.847656 -19.722656 2.359375 -20.234375 C 2.867188 -20.742188 3.492188 -21 4.234375 -21 C 4.972656 -21 5.597656 -20.742188 6.109375 -20.234375 C 6.628906 -19.722656 6.890625 -19.09375 6.890625 -18.34375 C 6.890625 -17.59375 6.628906 -16.957031 6.109375 -16.4375 Z M 1.984375 0 L 1.984375 -14.78125 L 6.515625 -14.78125 L 6.515625 0 Z M 1.984375 0 "/></g></g></g><g fill="#000000" fill-opacity="1"><g transform="translate(93.481842, 136.202375)"><g><path d="M 10.859375 -4.640625 C 11.460938 -5.273438 11.765625 -6.191406 11.765625 -7.390625 C 11.765625 -8.585938 11.453125 -9.5 10.828125 -10.125 C 10.210938 -10.757812 9.476562 -11.078125 8.625 -11.078125 C 7.78125 -11.078125 7.050781 -10.757812 6.4375 -10.125 C 5.832031 -9.5 5.53125 -8.585938 5.53125 -7.390625 C 5.53125 -6.191406 5.84375 -5.273438 6.46875 -4.640625 C 7.101562 -4.003906 7.84375 -3.6875 8.6875 -3.6875 C 9.53125 -3.6875 10.253906 -4.003906 10.859375 -4.640625 Z M 3.15625 -1.90625 C 1.664062 -3.300781 0.921875 -5.132812 0.921875 -7.40625 C 0.921875 -9.6875 1.660156 -11.507812 3.140625 -12.875 C 4.628906 -14.25 6.46875 -14.9375 8.65625 -14.9375 C 10.84375 -14.9375 12.675781 -14.25 14.15625 -12.875 C 15.632812 -11.507812 16.375 -9.6875 16.375 -7.40625 C 16.375 -5.132812 15.640625 -3.300781 14.171875 -1.90625 C 12.703125 -0.507812 10.875 0.1875 8.6875 0.1875 C 6.5 0.1875 4.65625 -0.507812 3.15625 -1.90625 Z M 3.15625 -1.90625 "/></g></g></g><g fill="#000000" fill-opacity="1"><g transform="translate(110.110935, 136.202375)"><g><path d="M 6.515625 -14.78125 L 6.515625 -12.609375 C 7.453125 -14.160156 8.941406 -14.9375 10.984375 -14.9375 C 12.679688 -14.9375 14.054688 -14.367188 15.109375 -13.234375 C 16.160156 -12.109375 16.6875 -10.578125 16.6875 -8.640625 L 16.6875 0 L 12.1875 0 L 12.1875 -8.03125 C 12.1875 -8.976562 11.929688 -9.710938 11.421875 -10.234375 C 10.921875 -10.753906 10.226562 -11.015625 9.34375 -11.015625 C 8.46875 -11.015625 7.773438 -10.753906 7.265625 -10.234375 C 6.765625 -9.710938 6.515625 -8.976562 6.515625 -8.03125 L 6.515625 0 L 1.984375 0 L 1.984375 -14.78125 Z M 6.515625 -14.78125 "/></g></g></g></svg>