<svg xmlns="http://www.w3.org/2000/svg" xmlns:xlink="http://www.w3.org/1999/xlink" width="500" zoomAndPan="magnify" viewBox="0 0 375 374.999991" height="500" preserveAspectRatio="xMidYMid meet" version="1.0"><defs><g/><clipPath id="id1"><path d="M 89.429688 72 L 285.789062 72 L 285.789062 151 L 89.429688 151 Z M 89.429688 72 " clip-rule="nonzero"/></clipPath></defs><path fill="#f5b900" d="M 218.449219 126.382812 C 218.449219 128.136719 218.398438 129.882812 218.300781 131.625 C 218.199219 133.371094 218.050781 135.101562 217.855469 136.820312 C 217.65625 138.539062 217.410156 140.238281 217.117188 141.914062 C 216.824219 143.589844 216.484375 145.238281 216.097656 146.855469 C 215.710938 148.476562 215.277344 150.058594 214.800781 151.601562 C 214.324219 153.148438 213.804688 154.648438 213.246094 156.105469 C 212.683594 157.5625 212.082031 158.96875 211.4375 160.324219 C 210.796875 161.679688 210.121094 162.976562 209.402344 164.214844 C 208.6875 165.453125 207.941406 166.628906 207.160156 167.738281 C 206.378906 168.851562 205.566406 169.894531 204.726562 170.867188 C 203.882812 171.839844 203.019531 172.742188 202.125 173.566406 C 201.234375 174.394531 200.320312 175.140625 199.386719 175.8125 C 198.453125 176.484375 197.5 177.070312 196.535156 177.582031 C 195.566406 178.089844 194.585938 178.515625 193.59375 178.855469 C 192.601562 179.199219 191.605469 179.457031 190.597656 179.625 C 189.589844 179.796875 188.582031 179.882812 187.570312 179.882812 C 186.558594 179.882812 185.550781 179.796875 184.542969 179.625 C 183.539062 179.457031 182.539062 179.199219 181.546875 178.855469 C 180.554688 178.515625 179.574219 178.089844 178.605469 177.582031 C 177.640625 177.070312 176.6875 176.484375 175.753906 175.8125 C 174.820312 175.140625 173.90625 174.394531 173.015625 173.566406 C 172.125 172.742188 171.257812 171.839844 170.417969 170.867188 C 169.574219 169.894531 168.765625 168.851562 167.980469 167.738281 C 167.199219 166.628906 166.453125 165.453125 165.738281 164.214844 C 165.023438 162.976562 164.34375 161.679688 163.703125 160.324219 C 163.058594 158.96875 162.457031 157.5625 161.898438 156.105469 C 161.335938 154.648438 160.816406 153.148438 160.339844 151.601562 C 159.863281 150.058594 159.429688 148.476562 159.042969 146.855469 C 158.65625 145.238281 158.316406 143.589844 158.023438 141.914062 C 157.730469 140.238281 157.484375 138.539062 157.285156 136.820312 C 157.089844 135.101562 156.941406 133.371094 156.84375 131.625 C 156.742188 129.882812 156.691406 128.136719 156.691406 126.382812 C 156.691406 124.628906 156.742188 122.882812 156.84375 121.140625 C 156.941406 119.394531 157.089844 117.664062 157.285156 115.945312 C 157.484375 114.226562 157.730469 112.527344 158.023438 110.851562 C 158.316406 109.175781 158.65625 107.527344 159.042969 105.910156 C 159.429688 104.289062 159.863281 102.707031 160.339844 101.164062 C 160.816406 99.617188 161.335938 98.117188 161.898438 96.660156 C 162.457031 95.203125 163.058594 93.796875 163.703125 92.441406 C 164.34375 91.085938 165.023438 89.789062 165.738281 88.550781 C 166.453125 87.3125 167.199219 86.136719 167.980469 85.023438 C 168.765625 83.914062 169.574219 82.871094 170.417969 81.898438 C 171.257812 80.925781 172.125 80.023438 173.015625 79.199219 C 173.90625 78.371094 174.820312 77.625 175.753906 76.953125 C 176.6875 76.28125 177.640625 75.695312 178.605469 75.183594 C 179.574219 74.675781 180.554688 74.25 181.546875 73.910156 C 182.539062 73.566406 183.539062 73.308594 184.542969 73.136719 C 185.550781 72.96875 186.558594 72.882812 187.570312 72.882812 C 188.582031 72.882812 189.589844 72.96875 190.597656 73.136719 C 191.605469 73.308594 192.601562 73.566406 193.59375 73.910156 C 194.585938 74.25 195.566406 74.675781 196.535156 75.183594 C 197.5 75.695312 198.453125 76.28125 199.386719 76.953125 C 200.320312 77.625 201.234375 78.371094 202.125 79.199219 C 203.019531 80.023438 203.882812 80.925781 204.726562 81.898438 C 205.566406 82.871094 206.378906 83.914062 207.160156 85.023438 C 207.941406 86.136719 208.6875 87.3125 209.402344 88.550781 C 210.121094 89.789062 210.796875 91.085938 211.4375 92.441406 C 212.082031 93.796875 212.683594 95.203125 213.246094 96.660156 C 213.804688 98.117188 214.324219 99.617188 214.800781 101.164062 C 215.277344 102.707031 215.710938 104.289062 216.097656 105.910156 C 216.484375 107.527344 216.824219 109.175781 217.117188 110.851562 C 217.410156 112.527344 217.65625 114.226562 217.855469 115.945312 C 218.050781 117.664062 218.199219 119.394531 218.300781 121.140625 C 218.398438 122.882812 218.449219 124.628906 218.449219 126.382812 Z M 218.449219 126.382812 " fill-opacity="1" fill-rule="nonzero"/><path fill="#232323" d="M 214.878906 126.382812 C 214.878906 112.269531 211.621094 99.554688 206.34375 90.40625 C 201.378906 81.875 194.785156 76.601562 187.648438 76.601562 C 180.511719 76.601562 173.917969 81.875 168.949219 90.40625 C 163.675781 99.554688 160.417969 112.269531 160.417969 126.382812 C 160.417969 140.496094 163.675781 153.210938 168.949219 162.359375 C 173.917969 170.890625 180.511719 176.164062 187.648438 176.164062 C 194.785156 176.164062 201.378906 170.890625 206.34375 162.359375 C 211.621094 153.210938 214.878906 140.496094 214.878906 126.382812 Z M 212.628906 86.761719 C 218.527344 96.996094 222.171875 110.953125 222.171875 126.382812 C 222.171875 141.8125 218.527344 155.769531 212.628906 166.003906 C 206.421875 176.78125 197.578125 183.527344 187.648438 183.527344 C 177.71875 183.527344 168.875 176.859375 162.667969 166.003906 C 156.769531 155.769531 153.125 141.8125 153.125 126.382812 C 153.125 110.953125 156.769531 96.996094 162.667969 86.761719 C 168.875 75.984375 177.71875 69.238281 187.648438 69.238281 C 197.578125 69.238281 206.421875 75.90625 212.628906 86.761719 Z M 212.628906 86.761719 " fill-opacity="1" fill-rule="nonzero"/><path fill="#232323" d="M 217.363281 32.636719 C 219.300781 32.019531 221.320312 33.105469 221.9375 34.964844 C 222.558594 36.902344 221.472656 38.917969 219.613281 39.539062 C 219.535156 39.539062 197.035156 46.519531 191.21875 73.578125 C 190.828125 75.515625 188.890625 76.835938 186.871094 76.371094 C 184.933594 75.984375 183.613281 74.042969 184.078125 72.027344 C 190.828125 40.78125 217.363281 32.5625 217.441406 32.5625 Z M 217.363281 32.636719 " fill-opacity="1" fill-rule="nonzero"/><path fill="#232323" d="M 155.605469 39.617188 C 153.667969 38.996094 152.660156 36.980469 153.28125 35.042969 C 153.898438 33.105469 155.917969 32.09375 157.855469 32.714844 C 157.933594 32.714844 184.46875 40.933594 191.21875 72.183594 C 191.605469 74.121094 190.363281 76.058594 188.425781 76.523438 C 186.484375 76.914062 184.546875 75.671875 184.078125 73.734375 C 178.261719 46.671875 155.683594 39.695312 155.683594 39.695312 Z M 155.605469 39.617188 " fill-opacity="1" fill-rule="nonzero"/><path fill="#b88b00" d="M 160.339844 126.382812 C 160.339844 146.386719 170.734375 164.996094 187.570312 175.621094 L 187.570312 77.222656 C 170.734375 87.847656 160.339844 106.53125 160.339844 126.460938 Z M 160.339844 126.382812 " fill-opacity="1" fill-rule="nonzero"/><path fill="#b88b00" d="M 187.570312 184.070312 L 185.785156 182.984375 Z M 187.570312 184.070312 " fill-opacity="1" fill-rule="nonzero"/><path fill="#232323" d="M 210.148438 95.367188 L 165.070312 95.367188 C 161.347656 101.804688 158.789062 108.859375 157.546875 116.457031 L 217.671875 116.457031 C 216.429688 108.859375 213.871094 101.726562 210.148438 95.367188 Z M 165.925781 158.714844 L 209.371094 158.714844 C 213.328125 152.359375 216.121094 145.226562 217.515625 137.625 L 157.78125 137.625 C 159.175781 145.226562 161.96875 152.359375 165.847656 158.714844 Z M 165.925781 158.714844 " fill-opacity="1" fill-rule="nonzero"/><g clip-path="url(#id1)"><path fill="#232323" d="M 234.351562 150.109375 C 216.121094 148.480469 200.214844 103.429688 200.214844 103.429688 L 246.453125 145.691406 C 244.050781 148.792969 240.015625 150.574219 234.429688 150.109375 Z M 140.789062 150.109375 C 159.019531 148.480469 174.925781 103.429688 174.925781 103.429688 L 128.6875 145.691406 C 131.089844 148.792969 135.125 150.574219 140.710938 150.109375 Z M 92.457031 81.796875 C 90.828125 84.203125 89.742188 87.535156 89.507812 91.179688 L 175.003906 103.355469 C 128.917969 60.476562 99.28125 71.640625 92.457031 81.796875 Z M 122.167969 117.777344 C 128.917969 118.007812 135.046875 117.621094 140.554688 116.769531 C 139.9375 117.078125 139.316406 117.464844 138.773438 117.777344 C 126.046875 125.066406 123.253906 138.632812 128.839844 145.691406 L 175.078125 103.429688 L 175.003906 103.429688 L 175.078125 103.355469 L 89.585938 91.179688 C 88.808594 102.5 96.488281 116.921875 122.246094 117.777344 Z M 282.761719 81.796875 C 284.390625 84.203125 285.476562 87.535156 285.710938 91.179688 L 200.214844 103.355469 C 246.300781 60.476562 275.9375 71.640625 282.761719 81.796875 Z M 253.050781 117.777344 C 246.300781 118.007812 240.171875 117.621094 234.664062 116.769531 C 235.28125 117.078125 235.902344 117.464844 236.445312 117.777344 C 249.171875 125.066406 251.964844 138.632812 246.378906 145.691406 L 200.140625 103.429688 L 200.214844 103.429688 L 200.140625 103.355469 L 285.632812 91.179688 C 286.410156 102.5 278.730469 116.921875 252.972656 117.777344 Z M 253.050781 117.777344 " fill-opacity="1" fill-rule="nonzero"/></g><path fill="#232323" d="M 191.21875 179.03125 L 187.570312 207.253906 L 183.925781 179.03125 Z M 191.21875 179.03125 " fill-opacity="1" fill-rule="nonzero"/><g fill="#000000" fill-opacity="1"><g transform="translate(139.161086, 257.630959)"><g><path d="M 3.84375 -35.9375 L 19.453125 -35.9375 C 23.109375 -35.9375 26.019531 -35.050781 28.1875 -33.28125 C 30.351562 -31.507812 31.4375 -29.253906 31.4375 -26.515625 C 31.4375 -22.460938 29.066406 -19.71875 24.328125 -18.28125 C 26.742188 -17.9375 28.671875 -16.925781 30.109375 -15.25 C 31.546875 -13.582031 32.265625 -11.625 32.265625 -9.375 C 32.265625 -6.5 31.210938 -4.21875 29.109375 -2.53125 C 27.003906 -0.84375 24.078125 0 20.328125 0 L 3.84375 0 Z M 12.59375 -29.28125 L 12.59375 -21.5 L 18.328125 -21.5 C 19.585938 -21.5 20.601562 -21.820312 21.375 -22.46875 C 22.144531 -23.125 22.53125 -24.09375 22.53125 -25.375 C 22.53125 -26.65625 22.144531 -27.625 21.375 -28.28125 C 20.601562 -28.945312 19.585938 -29.28125 18.328125 -29.28125 Z M 12.59375 -6.65625 L 19.203125 -6.65625 C 20.398438 -6.65625 21.390625 -7.015625 22.171875 -7.734375 C 22.953125 -8.453125 23.34375 -9.441406 23.34375 -10.703125 C 23.34375 -11.960938 22.96875 -12.96875 22.21875 -13.71875 C 21.46875 -14.46875 20.492188 -14.84375 19.296875 -14.84375 L 12.59375 -14.84375 Z M 12.59375 -6.65625 "/></g></g></g><g fill="#000000" fill-opacity="1"><g transform="translate(172.388993, 257.630959)"><g><path d="M 15.96875 0.359375 C 11.8125 0.359375 8.398438 -0.976562 5.734375 -3.65625 C 3.066406 -6.34375 1.734375 -9.90625 1.734375 -14.34375 C 1.734375 -18.78125 3.054688 -22.3125 5.703125 -24.9375 C 8.347656 -27.5625 11.769531 -28.875 15.96875 -28.875 C 20.164062 -28.875 23.644531 -27.578125 26.40625 -24.984375 C 29.175781 -22.390625 30.5625 -18.789062 30.5625 -14.1875 C 30.5625 -13.195312 30.492188 -12.273438 30.359375 -11.421875 L 10.703125 -11.421875 C 10.867188 -10.160156 11.429688 -9.128906 12.390625 -8.328125 C 13.347656 -7.523438 14.378906 -7.125 15.484375 -7.125 C 16.597656 -7.125 17.425781 -7.234375 17.96875 -7.453125 C 18.519531 -7.671875 18.921875 -7.890625 19.171875 -8.109375 C 19.429688 -8.335938 19.765625 -8.707031 20.171875 -9.21875 L 29.640625 -9.21875 C 28.828125 -6.351562 27.191406 -4.039062 24.734375 -2.28125 C 22.273438 -0.519531 19.351562 0.359375 15.96875 0.359375 Z M 21.453125 -16.890625 C 21.316406 -18.222656 20.734375 -19.304688 19.703125 -20.140625 C 18.679688 -20.984375 17.472656 -21.40625 16.078125 -21.40625 C 14.679688 -21.40625 13.503906 -20.984375 12.546875 -20.140625 C 11.585938 -19.304688 10.988281 -18.222656 10.75 -16.890625 Z M 21.453125 -16.890625 "/></g></g></g><g fill="#000000" fill-opacity="1"><g transform="translate(203.466533, 257.630959)"><g><path d="M 15.96875 0.359375 C 11.8125 0.359375 8.398438 -0.976562 5.734375 -3.65625 C 3.066406 -6.34375 1.734375 -9.90625 1.734375 -14.34375 C 1.734375 -18.78125 3.054688 -22.3125 5.703125 -24.9375 C 8.347656 -27.5625 11.769531 -28.875 15.96875 -28.875 C 20.164062 -28.875 23.644531 -27.578125 26.40625 -24.984375 C 29.175781 -22.390625 30.5625 -18.789062 30.5625 -14.1875 C 30.5625 -13.195312 30.492188 -12.273438 30.359375 -11.421875 L 10.703125 -11.421875 C 10.867188 -10.160156 11.429688 -9.128906 12.390625 -8.328125 C 13.347656 -7.523438 14.378906 -7.125 15.484375 -7.125 C 16.597656 -7.125 17.425781 -7.234375 17.96875 -7.453125 C 18.519531 -7.671875 18.921875 -7.890625 19.171875 -8.109375 C 19.429688 -8.335938 19.765625 -8.707031 20.171875 -9.21875 L 29.640625 -9.21875 C 28.828125 -6.351562 27.191406 -4.039062 24.734375 -2.28125 C 22.273438 -0.519531 19.351562 0.359375 15.96875 0.359375 Z M 21.453125 -16.890625 C 21.316406 -18.222656 20.734375 -19.304688 19.703125 -20.140625 C 18.679688 -20.984375 17.472656 -21.40625 16.078125 -21.40625 C 14.679688 -21.40625 13.503906 -20.984375 12.546875 -20.140625 C 11.585938 -19.304688 10.988281 -18.222656 10.75 -16.890625 Z M 21.453125 -16.890625 "/></g></g></g><g fill="#000000" fill-opacity="1"><g transform="translate(83.766559, 310.880956)"><g><path d="M 3.84375 0 L 3.84375 -35.9375 L 27.234375 -35.9375 L 27.234375 -29.28125 L 12.59375 -29.28125 L 12.59375 -21.5625 L 23.546875 -21.5625 L 23.546875 -14.90625 L 12.59375 -14.90625 L 12.59375 0 Z M 3.84375 0 "/></g></g></g><g fill="#000000" fill-opacity="1"><g transform="translate(111.92574, 310.880956)"><g><path d="M 21.25 -9.0625 C 22.507812 -10.289062 23.140625 -12.03125 23.140625 -14.28125 C 23.140625 -16.539062 22.507812 -18.273438 21.25 -19.484375 C 19.988281 -20.691406 18.535156 -21.296875 16.890625 -21.296875 C 15.253906 -21.296875 13.804688 -20.679688 12.546875 -19.453125 C 11.285156 -18.222656 10.65625 -16.484375 10.65625 -14.234375 C 10.65625 -11.984375 11.285156 -10.25 12.546875 -9.03125 C 13.804688 -7.820312 15.253906 -7.21875 16.890625 -7.21875 C 18.535156 -7.21875 19.988281 -7.832031 21.25 -9.0625 Z M 5.515625 -3.734375 C 2.992188 -6.460938 1.734375 -9.960938 1.734375 -14.234375 C 1.734375 -18.503906 2.992188 -22.007812 5.515625 -24.75 C 8.046875 -27.5 11.128906 -28.875 14.765625 -28.875 C 18.398438 -28.875 21.191406 -27.523438 23.140625 -24.828125 L 23.140625 -28.578125 L 31.90625 -28.578125 L 31.90625 0 L 23.140625 0 L 23.140625 -4.140625 C 21.023438 -1.140625 18.191406 0.359375 14.640625 0.359375 C 11.085938 0.359375 8.046875 -1.003906 5.515625 -3.734375 Z M 5.515625 -3.734375 "/></g></g></g><g fill="#000000" fill-opacity="1"><g transform="translate(146.382434, 310.880956)"><g><path d="M 1.890625 -19.96875 C 1.890625 -22.5 2.960938 -24.613281 5.109375 -26.3125 C 7.265625 -28.019531 10.175781 -28.875 13.84375 -28.875 C 17.519531 -28.875 20.484375 -28.035156 22.734375 -26.359375 C 24.984375 -24.691406 26.175781 -22.410156 26.3125 -19.515625 L 17.359375 -19.515625 C 17.253906 -20.503906 16.910156 -21.175781 16.328125 -21.53125 C 15.753906 -21.882812 14.882812 -22.0625 13.71875 -22.0625 C 11.4375 -22.0625 10.296875 -21.363281 10.296875 -19.96875 C 10.296875 -18.707031 11.691406 -17.835938 14.484375 -17.359375 C 17.316406 -16.878906 19.894531 -16.144531 22.21875 -15.15625 C 23.414062 -14.675781 24.414062 -13.878906 25.21875 -12.765625 C 26.019531 -11.660156 26.421875 -10.304688 26.421875 -8.703125 C 26.421875 -6.035156 25.273438 -3.859375 22.984375 -2.171875 C 20.703125 -0.484375 17.816406 0.359375 14.328125 0.359375 C 10.847656 0.359375 7.945312 -0.429688 5.625 -2.015625 C 3.3125 -3.609375 2.050781 -5.957031 1.84375 -9.0625 L 10.796875 -9.0625 C 11.035156 -7.320312 12.265625 -6.453125 14.484375 -6.453125 C 15.515625 -6.453125 16.363281 -6.691406 17.03125 -7.171875 C 17.695312 -7.648438 18.03125 -8.265625 18.03125 -9.015625 C 18.03125 -9.765625 17.472656 -10.359375 16.359375 -10.796875 C 15.242188 -11.242188 13.898438 -11.617188 12.328125 -11.921875 C 10.765625 -12.234375 9.1875 -12.617188 7.59375 -13.078125 C 6.007812 -13.546875 4.660156 -14.347656 3.546875 -15.484375 C 2.441406 -16.628906 1.890625 -18.125 1.890625 -19.96875 Z M 1.890625 -19.96875 "/></g></g></g><g fill="#000000" fill-opacity="1"><g transform="translate(173.517632, 310.880956)"><g><path d="M 12.59375 -37.890625 L 12.59375 -24.375 C 14.40625 -27.375 17.289062 -28.875 21.25 -28.875 C 24.53125 -28.875 27.1875 -27.78125 29.21875 -25.59375 C 31.25 -23.414062 32.265625 -20.445312 32.265625 -16.6875 L 32.265625 0 L 23.546875 0 L 23.546875 -15.515625 C 23.546875 -17.359375 23.0625 -18.78125 22.09375 -19.78125 C 21.125 -20.789062 19.785156 -21.296875 18.078125 -21.296875 C 16.367188 -21.296875 15.023438 -20.789062 14.046875 -19.78125 C 13.078125 -18.78125 12.59375 -17.359375 12.59375 -15.515625 L 12.59375 0 L 3.84375 0 L 3.84375 -37.890625 Z M 12.59375 -37.890625 "/></g></g></g><g fill="#000000" fill-opacity="1"><g transform="translate(208.076727, 310.880956)"><g><path d="M 11.828125 -31.796875 C 10.835938 -30.804688 9.625 -30.3125 8.1875 -30.3125 C 6.757812 -30.3125 5.550781 -30.804688 4.5625 -31.796875 C 3.570312 -32.785156 3.078125 -34.003906 3.078125 -35.453125 C 3.078125 -36.910156 3.570312 -38.132812 4.5625 -39.125 C 5.550781 -40.113281 6.757812 -40.609375 8.1875 -40.609375 C 9.625 -40.609375 10.835938 -40.113281 11.828125 -39.125 C 12.816406 -38.132812 13.3125 -36.910156 13.3125 -35.453125 C 13.3125 -34.003906 12.816406 -32.785156 11.828125 -31.796875 Z M 3.84375 0 L 3.84375 -28.578125 L 12.59375 -28.578125 L 12.59375 0 Z M 3.84375 0 "/></g></g></g><g fill="#000000" fill-opacity="1"><g transform="translate(223.231301, 310.880956)"><g><path d="M 20.984375 -8.953125 C 22.148438 -10.179688 22.734375 -11.957031 22.734375 -14.28125 C 22.734375 -16.601562 22.132812 -18.367188 20.9375 -19.578125 C 19.75 -20.796875 18.332031 -21.40625 16.6875 -21.40625 C 15.050781 -21.40625 13.644531 -20.796875 12.46875 -19.578125 C 11.289062 -18.367188 10.703125 -16.601562 10.703125 -14.28125 C 10.703125 -11.957031 11.304688 -10.179688 12.515625 -8.953125 C 13.734375 -7.734375 15.160156 -7.125 16.796875 -7.125 C 18.429688 -7.125 19.828125 -7.734375 20.984375 -8.953125 Z M 6.125 -3.6875 C 3.238281 -6.382812 1.796875 -9.929688 1.796875 -14.328125 C 1.796875 -18.734375 3.226562 -22.257812 6.09375 -24.90625 C 8.957031 -27.550781 12.503906 -28.875 16.734375 -28.875 C 20.972656 -28.875 24.515625 -27.550781 27.359375 -24.90625 C 30.210938 -22.257812 31.640625 -18.734375 31.640625 -14.328125 C 31.640625 -9.929688 30.222656 -6.382812 27.390625 -3.6875 C 24.554688 -0.988281 21.023438 0.359375 16.796875 0.359375 C 12.566406 0.359375 9.007812 -0.988281 6.125 -3.6875 Z M 6.125 -3.6875 "/></g></g></g><g fill="#000000" fill-opacity="1"><g transform="translate(255.384024, 310.880956)"><g><path d="M 12.59375 -28.578125 L 12.59375 -24.375 C 14.40625 -27.375 17.289062 -28.875 21.25 -28.875 C 24.53125 -28.875 27.1875 -27.78125 29.21875 -25.59375 C 31.25 -23.414062 32.265625 -20.445312 32.265625 -16.6875 L 32.265625 0 L 23.546875 0 L 23.546875 -15.515625 C 23.546875 -17.359375 23.0625 -18.78125 22.09375 -19.78125 C 21.125 -20.789062 19.785156 -21.296875 18.078125 -21.296875 C 16.367188 -21.296875 15.023438 -20.789062 14.046875 -19.78125 C 13.078125 -18.78125 12.59375 -17.359375 12.59375 -15.515625 L 12.59375 0 L 3.84375 0 L 3.84375 -28.578125 Z M 12.59375 -28.578125 "/></g></g></g></svg>